<mxfile host="app.diagrams.net" agent="Mozilla/5.0 (Windows NT 10.0; Win64; x64; rv:131.0) Gecko/20100101 Firefox/131.0" version="24.7.16">
  <diagram name="Page-1" id="XRCJCf_i4nZGpdaoohAl">
    <mxGraphModel dx="1105" dy="637" grid="1" gridSize="10" guides="1" tooltips="1" connect="1" arrows="1" fold="1" page="1" pageScale="1" pageWidth="850" pageHeight="1100" math="0" shadow="0">
      <root>
        <mxCell id="0" />
        <mxCell id="1" parent="0" />
        <mxCell id="1BX0ATq_XwIffykIsp29-3" value="" style="edgeStyle=orthogonalEdgeStyle;rounded=0;orthogonalLoop=1;jettySize=auto;html=1;" edge="1" parent="1" source="1BX0ATq_XwIffykIsp29-1" target="1BX0ATq_XwIffykIsp29-2">
          <mxGeometry relative="1" as="geometry" />
        </mxCell>
        <mxCell id="1BX0ATq_XwIffykIsp29-1" value="Mulai" style="ellipse;whiteSpace=wrap;html=1;" vertex="1" parent="1">
          <mxGeometry x="370" y="30" width="80" height="40" as="geometry" />
        </mxCell>
        <mxCell id="1BX0ATq_XwIffykIsp29-8" value="" style="edgeStyle=orthogonalEdgeStyle;rounded=0;orthogonalLoop=1;jettySize=auto;html=1;" edge="1" parent="1" source="1BX0ATq_XwIffykIsp29-2" target="1BX0ATq_XwIffykIsp29-7">
          <mxGeometry relative="1" as="geometry" />
        </mxCell>
        <mxCell id="1BX0ATq_XwIffykIsp29-2" value="Modul ON" style="rhombus;whiteSpace=wrap;html=1;" vertex="1" parent="1">
          <mxGeometry x="370" y="110" width="80" height="80" as="geometry" />
        </mxCell>
        <mxCell id="1BX0ATq_XwIffykIsp29-12" value="" style="edgeStyle=orthogonalEdgeStyle;rounded=0;orthogonalLoop=1;jettySize=auto;html=1;" edge="1" parent="1" source="1BX0ATq_XwIffykIsp29-7" target="1BX0ATq_XwIffykIsp29-11">
          <mxGeometry relative="1" as="geometry" />
        </mxCell>
        <mxCell id="1BX0ATq_XwIffykIsp29-7" value="Pengambilan Data" style="rounded=1;whiteSpace=wrap;html=1;" vertex="1" parent="1">
          <mxGeometry x="350" y="240" width="120" height="60" as="geometry" />
        </mxCell>
        <mxCell id="1BX0ATq_XwIffykIsp29-24" value="" style="edgeStyle=orthogonalEdgeStyle;rounded=0;orthogonalLoop=1;jettySize=auto;html=1;" edge="1" parent="1" source="1BX0ATq_XwIffykIsp29-11" target="1BX0ATq_XwIffykIsp29-23">
          <mxGeometry relative="1" as="geometry" />
        </mxCell>
        <mxCell id="1BX0ATq_XwIffykIsp29-11" value="Prosessing Data" style="whiteSpace=wrap;html=1;rounded=1;" vertex="1" parent="1">
          <mxGeometry x="350" y="350" width="120" height="60" as="geometry" />
        </mxCell>
        <mxCell id="1BX0ATq_XwIffykIsp29-26" value="" style="edgeStyle=orthogonalEdgeStyle;rounded=0;orthogonalLoop=1;jettySize=auto;html=1;" edge="1" parent="1" source="1BX0ATq_XwIffykIsp29-23" target="1BX0ATq_XwIffykIsp29-25">
          <mxGeometry relative="1" as="geometry" />
        </mxCell>
        <mxCell id="1BX0ATq_XwIffykIsp29-23" value="Server" style="whiteSpace=wrap;html=1;rounded=1;" vertex="1" parent="1">
          <mxGeometry x="350" y="460" width="120" height="60" as="geometry" />
        </mxCell>
        <mxCell id="1BX0ATq_XwIffykIsp29-28" value="" style="edgeStyle=orthogonalEdgeStyle;rounded=0;orthogonalLoop=1;jettySize=auto;html=1;" edge="1" parent="1" source="1BX0ATq_XwIffykIsp29-25" target="1BX0ATq_XwIffykIsp29-27">
          <mxGeometry relative="1" as="geometry" />
        </mxCell>
        <mxCell id="1BX0ATq_XwIffykIsp29-25" value="Database" style="whiteSpace=wrap;html=1;rounded=1;" vertex="1" parent="1">
          <mxGeometry x="350" y="570" width="120" height="60" as="geometry" />
        </mxCell>
        <mxCell id="1BX0ATq_XwIffykIsp29-30" value="" style="edgeStyle=orthogonalEdgeStyle;rounded=0;orthogonalLoop=1;jettySize=auto;html=1;" edge="1" parent="1" source="1BX0ATq_XwIffykIsp29-27" target="1BX0ATq_XwIffykIsp29-29">
          <mxGeometry relative="1" as="geometry" />
        </mxCell>
        <mxCell id="1BX0ATq_XwIffykIsp29-27" value="Pelatihan Model Machine Learning " style="whiteSpace=wrap;html=1;rounded=1;" vertex="1" parent="1">
          <mxGeometry x="350" y="680" width="120" height="60" as="geometry" />
        </mxCell>
        <mxCell id="1BX0ATq_XwIffykIsp29-37" value="" style="edgeStyle=orthogonalEdgeStyle;rounded=0;orthogonalLoop=1;jettySize=auto;html=1;" edge="1" parent="1" source="1BX0ATq_XwIffykIsp29-29" target="1BX0ATq_XwIffykIsp29-36">
          <mxGeometry relative="1" as="geometry" />
        </mxCell>
        <mxCell id="1BX0ATq_XwIffykIsp29-29" value="Menampilan Hasil di Website" style="whiteSpace=wrap;html=1;rounded=1;" vertex="1" parent="1">
          <mxGeometry x="350" y="790" width="120" height="60" as="geometry" />
        </mxCell>
        <mxCell id="1BX0ATq_XwIffykIsp29-41" value="" style="edgeStyle=orthogonalEdgeStyle;rounded=0;orthogonalLoop=1;jettySize=auto;html=1;" edge="1" parent="1" source="1BX0ATq_XwIffykIsp29-36">
          <mxGeometry relative="1" as="geometry">
            <mxPoint x="410" y="1000" as="targetPoint" />
          </mxGeometry>
        </mxCell>
        <mxCell id="1BX0ATq_XwIffykIsp29-36" value="Pasien dan Dokter" style="whiteSpace=wrap;html=1;rounded=1;" vertex="1" parent="1">
          <mxGeometry x="350" y="900" width="120" height="60" as="geometry" />
        </mxCell>
        <mxCell id="1BX0ATq_XwIffykIsp29-42" value="Selesai" style="ellipse;whiteSpace=wrap;html=1;" vertex="1" parent="1">
          <mxGeometry x="370" y="1010" width="80" height="40" as="geometry" />
        </mxCell>
        <mxCell id="1BX0ATq_XwIffykIsp29-4" style="edgeStyle=orthogonalEdgeStyle;rounded=0;orthogonalLoop=1;jettySize=auto;html=1;" edge="1" parent="1" source="1BX0ATq_XwIffykIsp29-2">
          <mxGeometry relative="1" as="geometry">
            <mxPoint x="470" y="1030" as="targetPoint" />
            <Array as="points">
              <mxPoint x="521" y="150" />
              <mxPoint x="521" y="1030" />
            </Array>
          </mxGeometry>
        </mxCell>
        <mxCell id="1BX0ATq_XwIffykIsp29-48" value="Iya" style="text;html=1;align=center;verticalAlign=middle;resizable=0;points=[];autosize=1;strokeColor=none;fillColor=none;" vertex="1" parent="1">
          <mxGeometry x="410" y="188" width="40" height="30" as="geometry" />
        </mxCell>
        <mxCell id="1BX0ATq_XwIffykIsp29-49" value="Tidak" style="text;html=1;align=center;verticalAlign=middle;resizable=0;points=[];autosize=1;strokeColor=none;fillColor=none;" vertex="1" parent="1">
          <mxGeometry x="445" y="118" width="50" height="30" as="geometry" />
        </mxCell>
      </root>
    </mxGraphModel>
  </diagram>
</mxfile>
